<svg version="1.1" id="Layer_1" xmlns="http://www.w3.org/2000/svg" x="0" y="0" viewBox="0 0 200.36 69.72" xml:space="preserve"><path d="M34.43 68.15h-.04l-.15-.49-1.53-5.26h-.88l-1.6 5.26-.15.49h-.04l-.12-.49-1.3-5.26h-.94l1.94 7.16h.88l1.58-5.18.17-.56h.04l.16.56 1.52 5.18h.88l1.93-7.16h-.94l-1.41 5.75zm7.32 1.41h4.14v-.81h-3.3v-2.37h2.98v-.8h-2.98v-2.37h3.3v-.81h-4.14v7.16zm13.59-6.7c-.55-.3-1.19-.45-1.92-.45h-2.16v7.16h2.16c.73 0 1.37-.15 1.92-.46.55-.3.97-.72 1.26-1.26.29-.54.44-1.16.44-1.86s-.15-1.32-.44-1.86c-.3-.55-.72-.97-1.26-1.27zm.09 5.16c-.5.49-1.17.73-2.02.73H52.1v-5.54h1.32c.85 0 1.52.24 2.02.73s.74 1.17.74 2.04c0 .88-.25 1.56-.75 2.04zm10.94-5.16c-.55-.3-1.19-.45-1.92-.45h-2.16v7.16h2.16c.73 0 1.37-.15 1.92-.46.55-.3.97-.72 1.26-1.26.29-.54.44-1.16.44-1.86s-.15-1.32-.44-1.86c-.3-.55-.72-.97-1.26-1.27zm.09 5.16c-.5.49-1.17.73-2.02.73h-1.32v-5.54h1.32c.85 0 1.52.24 2.02.73s.74 1.17.74 2.04c.01.88-.24 1.56-.74 2.04zm6.86 1.54h.84V62.4h-.84v7.16zm11.07-2.84l.04 1.38h-.04l-3.59-5.7h-1.04v7.16h.84v-4.59l-.04-1.38h.04l3.76 5.97h.88V62.4h-.85v4.32zm9.73-.97v.79h2.65c-.03.32-.09.61-.2.88-.11.26-.25.49-.42.68-.23.25-.51.44-.84.59-.32.15-.72.22-1.21.22-.5 0-.97-.12-1.41-.36-.44-.24-.79-.59-1.05-1.03-.26-.44-.4-.96-.4-1.54 0-.58.13-1.09.4-1.53.26-.44.61-.79 1.05-1.03a2.9 2.9 0 0 1 1.41-.36c.41 0 .79.08 1.14.23.35.15.64.36.87.64l.61-.61c-.3-.34-.68-.6-1.14-.79-.46-.19-.96-.28-1.49-.28-.67 0-1.29.16-1.86.49-.57.33-1.02.78-1.35 1.35-.33.57-.5 1.21-.5 1.9s.17 1.33.5 1.9c.33.57.78 1.02 1.35 1.35.57.33 1.19.49 1.86.49 1.09 0 1.97-.36 2.63-1.07.31-.31.53-.68.67-1.1.14-.42.21-.84.21-1.28 0-.16-.02-.33-.05-.52h-3.43zm19.15-2.89c-.55-.3-1.19-.45-1.92-.45h-2.16v7.16h2.16c.73 0 1.37-.15 1.92-.46.55-.3.97-.72 1.26-1.26.29-.54.44-1.16.44-1.86s-.15-1.32-.44-1.86c-.3-.55-.72-.97-1.26-1.27zm.09 5.16c-.5.49-1.17.73-2.02.73h-1.32v-5.54h1.32c.85 0 1.52.24 2.02.73s.74 1.17.74 2.04c.01.88-.24 1.56-.74 2.04zm9.78-1.46c.32-.07.61-.2.88-.39.26-.19.47-.43.62-.72.15-.29.22-.6.22-.93 0-.41-.1-.77-.3-1.1-.2-.32-.47-.58-.82-.76-.34-.18-.71-.27-1.1-.27h-2.42v7.16h.84v-2.92h1.13l1.95 2.92h1v-.04l-2.02-2.93.02-.02zm-2.08-.71v-2.64h1.59c.27 0 .5.06.7.19.2.13.36.29.48.49.11.2.17.41.17.63 0 .25-.07.48-.2.68-.13.2-.3.36-.52.47-.22.11-.45.17-.69.17h-1.53zm9.02 3.71h4.14v-.81h-3.3v-2.37h2.98v-.8h-2.98v-2.37h3.3v-.81h-4.14v7.16zm11.94-4.08l-.47-.16c-.45-.15-.78-.32-1-.49a.847.847 0 0 1-.33-.68c0-.31.13-.57.39-.78.26-.21.57-.31.94-.31.39 0 .7.1.93.3.24.2.39.42.45.67l.8-.34c-.07-.21-.2-.43-.39-.65-.18-.22-.43-.41-.74-.56-.31-.15-.67-.23-1.08-.23-.41 0-.79.09-1.12.26-.33.17-.59.4-.78.7-.19.29-.28.6-.28.95 0 .52.16.93.48 1.22.32.29.73.53 1.24.71l.45.16c.55.19.95.39 1.2.61.24.22.36.49.36.82 0 .39-.14.69-.43.92-.29.22-.64.33-1.05.33-.41 0-.77-.14-1.08-.41-.31-.27-.52-.62-.63-1.05l-.81.33c.17.61.49 1.09.96 1.43.47.34.98.51 1.54.51.38 0 .75-.07 1.11-.22s.66-.38.9-.69c.24-.31.35-.7.35-1.16 0-.57-.17-1.02-.51-1.35-.32-.34-.8-.62-1.4-.84zm9.61 0l-.47-.16c-.45-.15-.78-.32-1-.49a.847.847 0 0 1-.33-.68c0-.31.13-.57.39-.78.26-.21.57-.31.94-.31.39 0 .7.1.93.3.24.2.39.42.46.67l.8-.34c-.07-.21-.2-.43-.39-.65-.18-.22-.43-.41-.73-.56-.31-.15-.67-.23-1.08-.23-.41 0-.79.09-1.12.26-.33.17-.59.4-.78.7-.19.29-.28.6-.28.95 0 .52.16.93.48 1.22.32.29.73.53 1.24.71l.45.16c.55.19.95.39 1.19.61.24.22.37.49.37.82 0 .39-.14.69-.43.92-.29.22-.64.33-1.05.33-.41 0-.77-.14-1.08-.41-.31-.27-.52-.62-.63-1.05l-.81.33c.17.61.49 1.09.96 1.43.47.34.98.51 1.54.51.38 0 .75-.07 1.11-.22s.66-.38.89-.69c.24-.31.36-.7.36-1.16 0-.57-.17-1.02-.51-1.35s-.82-.62-1.42-.84zm7.18 4.08h4.14v-.81h-3.3v-2.37h2.98v-.8h-2.98v-2.37h3.3v-.81h-4.14v7.16zm13.36-3.25c-.34-.33-.81-.6-1.42-.83l-.47-.16c-.45-.15-.78-.32-1-.49a.847.847 0 0 1-.33-.68c0-.31.13-.57.39-.78.26-.21.57-.31.94-.31.39 0 .7.1.93.3.24.2.39.42.45.67l.8-.34c-.07-.21-.2-.43-.39-.65-.18-.22-.43-.41-.73-.56-.31-.15-.67-.23-1.08-.23-.41 0-.79.09-1.12.26-.33.17-.59.4-.78.7-.19.29-.28.6-.28.95 0 .52.16.93.48 1.22.32.29.73.53 1.24.71l.45.16c.55.19.95.39 1.2.61.24.22.36.49.36.82 0 .39-.14.69-.43.92-.29.22-.64.33-1.05.33-.41 0-.77-.14-1.08-.41-.31-.27-.52-.62-.63-1.05l-.81.33c.17.61.49 1.09.96 1.43.47.34.98.51 1.54.51.38 0 .75-.07 1.11-.22.36-.15.66-.38.9-.69.24-.31.35-.7.35-1.16.01-.58-.16-1.03-.5-1.36zM97.4 20.52c.85 0 1.58-.73 1.58-1.58 0-.49-.18-.85-.43-1.15-.3-.24-.73-.42-1.15-.42-.42 0-.79.18-1.09.42-.3.3-.49.73-.49 1.15 0 .86.73 1.58 1.58 1.58zm54.84 5.59c0-.12-.06-.24-.12-.3-.12-.12-.24-.18-.36-.18-.06 0-.18.06-.24.12-1.82 1.64-4.37 3.7-6.44 5.47 0-4.19-.18-8.02-.61-10.26-.18-1.03-.97-1.4-1.82-1.4l-.55.06c-.91.18-1.7.79-1.7 1.64 0 1.4-3.34 11.78-5.59 13.18-.12-.49-.12-1.09-.12-1.7 0-3.04 1.03-7.1 1.46-9.9v-.24c0-.91-.85-1.4-1.82-1.52h-.43c-.91 0-1.76.3-1.88.85-.18.67-1.09 4.61-1.09 8.08 0 1.03.07 2 .27 2.84-.07.13-.14.26-.21.38-1.4 2.25-2.79 3.83-4.62 3.83h-.3c-1.34-.12-1.7-2.25-1.7-4.55 0-2.31.36-4.86.55-5.71.42.18.85.3 1.21.3 1.64 0 3.04-1.52 3.46-3.1.12-.36.18-.73.18-1.15 0-1.34-.73-2.49-2.37-2.67l-.91-.06a5.7 5.7 0 0 0-1.76.3c-2.61 1.03-4.25 5.28-4.25 9.35 0 1.08.12 2.15.37 3.15-2.1 4.24-3.96 7.48-5.05 7.6h-.06c-1.34 0-1.64-4.92-1.64-9.47 0-3.4.18-6.56.24-7.29 4.74-2.25 9.17-9.78 9.35-15.18v-.2c0-3.77-2.13-4.98-4.31-5.04-1.76 0-3.52.73-4.25 1.52-2.19 2.37-3.89 9.72-4.49 17.19-1.03-1.03-2.25-1.52-3.52-1.64h-.3c-2.79 0-4.74 3.58-5.34 7.41-.06.43-.12 1.15-.12 1.88 0 1.42.19 3.15.76 4.46-.7 1.36-1.47 2.32-2.28 2.34-.97 0-1.21-1.88-1.21-4.19 0-2 .2-4.32.35-6.03.01-.01.01-.03.02-.04v-.13c.07-.86.13-1.55.13-1.93v-.06c0-.73-.91-1.21-1.82-1.21h-.21c-.97 0-1.94.43-2 1.4-.12.55-.3 2.49-.3 4.74 0 1.44.09 3 .35 4.38-1.76 4.26-3.83 8.58-5.27 8.61-.55 0-.73-.73-.73-1.82 0-2.37.91-6.56 1.58-9.53.18-.97.49-1.82.49-2.55 0-.49-.12-.91-.36-1.34-1.09-2.06-4.37-1.34-6.5-2.13.85-.97 1.76-3.1 2.06-4.92l.06-.91c0-1.15-.43-1.94-1.21-2.31-.24-.06-.49-.12-.73-.12-1.34 0-3.04 1.21-3.52 4.19-.12.67-.18 1.28-.18 1.82 0 2.69 1.2 3.95 2.58 4.64l-4.89 3.07c-1.34-4.61-5.59-6.19-10.81-6.19l-1.46.06c5.47-3.58 9.72-7.83 11.05-14.94.06-.61.12-1.21.12-1.82 0-3.28-1.58-6.5-4.8-7.1L71.53 0c-.67 0-1.28.06-1.64.24-9.6 2.55-11.66 24.66-12.33 37.65-.18-2.25-.36-4.74-.36-7.96 0-4.74.36-10.99 1.4-19.61v-.24c0-1.28-.97-1.64-2.13-1.7-.91 0-1.88.49-2 1.52-.79 4.43-1.15 10.75-1.15 17.06 0 6.86.43 13.79 1.28 18.58.06.85.73 1.15 1.46 1.15 1.03-.06 2.06-.55 2.06-1.28 0-.67.06-1.52.12-2.55.42-11.11 1.58-39.35 12.02-41.78l.24-.06c2.43 0 2.98 3.64 2.98 6.01-.24 7.47-5.71 14.82-8.87 16.88-.25.14-.61.38-.61.74.06.3.3.36.79.36l.97-.06c4.55 0 8.68 2.67 9.23 7.53-6.25 4.49-12.33 11.05-12.33 16.15 0 2.61 1.64 4.43 4.01 4.43 3.16 0 7.41-3.4 9.96-9.41 1.21-2.79 2.25-6.74 2.25-10.2 0-.85-.06-1.7-.18-2.43l5.68-3.58c1.42.48 2.79.58 3.07 1.15l.06.24c0 1.15-1.15 5.65-1.15 9.23 0 1.7.24 3.22.97 4.13.49.61 1.21.79 1.88.79l.73-.06c1.75-.1 3.81-3.97 5.58-8.06.39 1.16.97 2.05 1.83 2.35.43.12 1.03.18 1.58.18l.91-.06c1.06-.04 1.97-.98 2.76-2.34.49.68 1.15 1.12 2.04 1.12 2.49 0 4.43-5.4 5.71-9.35v1.94c0 5.4.67 10.08 2.31 12.02.49.61 1.15.73 1.82.73l1.34-.06c1.42-.12 3.33-3.2 5.43-7.31.71 1.84 1.96 3.24 3.8 3.67.55.12 1.09.18 1.64.18 1.92-.12 3.55-1.85 4.91-4.02.14.28.3.53.49.74.42.49 1.28.73 2.06.73h.42c2.55-.24 5.4-8.93 6.07-11.23.12 2.43.24 5.47.24 8.68v2.06c-3.46 3.28-7.17 7.35-7.77 12.27l-.06 1.09c0 2.43.97 4.62 4.01 4.86h.49c2.06 0 3.58-1.03 4.68-2.92 2.06-3.64 2.67-12.21 2.79-17.79 2.31-1.94 4.98-4.13 7.04-6.01.12-.1.18-.22.18-.28zm-24.9-5.04c1.09.18 1.52.91 1.52 1.82 0 .3 0 .61-.12.97-.42 1.15-1.46 2.31-2.61 2.31-.3 0-.67-.06-1.03-.3.6-2.67 1.45-4.74 2.24-4.8zm-8.02-16.76h.12c2.37 0 3.34 1.7 3.34 3.95v.18c-.06 4.68-3.95 11.84-8.32 14.27.55-6.38 2.31-18.34 4.86-18.4zM75.05 33.82c0 8.32-5.47 18.1-8.93 18.34-1.7-.43-2.55-1.7-2.55-3.46 0-1.4.55-2.98 1.34-4.37 2.49-4.37 6.07-7.77 10.14-10.75v.24zm8.44-9.65c-.73-.61-.91-1.4-.91-2.31l.06-.97c.18-2.25 1.28-3.52 2.13-3.52h.18c.43.12.67.61.67 1.52v.55c-.18 1.63-1.03 3.82-2.13 4.73zm21.2 11.05c-.06-.24-.12-.73-.12-1.27 0-1.2.17-2.99.45-4.84.34-1.04.66-2.04.95-2.87v-.18c0-.12-.06-.3-.18-.36l-.15-.04c.49-2.26 1.1-4.09 1.66-4.34 1.28.24 2.37.79 3.16 2-1.03 3.34-3.4 11.9-5.77 11.9zm32.37 17c-2.31-.24-3.1-1.88-3.1-3.95v-.67c.36-4.37 3.52-8.14 6.92-11.42-.12 4.99-.73 15.68-3.82 16.04z"/><path d="M200.19 11.43c-.22-.15-.42.04-.58.17-1.04.79-2 1.66-2.8 2.7-.75.97-1.49 1.94-2.37 2.87.13-.83.22-1.67.39-2.5.32-1.62-.09-3.14-.6-4.65-.13-.38.06-1.05-.48-1.07-.34-.01-.38.64-.56.98-.68 1.28-.96 2.67-1.15 4.09-.14.98.15 1.86.67 2.65.74 1.11.73 2.09-.1 3.19-1.59 2.12-3.44 3.98-5.42 5.72-.42.37-.85.72-1.28 1.08-.11.09-.23.29-.38.19-.21-.15-.02-.33.05-.48.37-.75.76-1.49 1.15-2.23 1.23-2.35 1.84-4.85 1.73-7.51-.01-.22-.03-.43-.07-.64-.03-.15-.09-.31-.27-.33-.21-.02-.25.16-.29.3-.71 2.19-2.14 3.96-3.37 5.85-.93 1.42-1.08 3.02-.94 4.64.12 1.42-.39 2.47-1.53 3.24-1.77 1.2-3.61 2.28-5.66 3.08.53-.71 1.05-1.43 1.6-2.13 1.32-1.66 2.03-3.6 2.6-5.61.21-.75.4-1.5.59-2.25.05-.19.05-.39-.15-.49-.21-.1-.37.04-.46.19-.91 1.48-2.4 2.49-3.26 4.03-.69 1.24-.98 2.61-1.36 3.94-.28 1-.86 1.85-1.32 2.76-.16.32-.44.58-.82.71a45.438 45.438 0 0 1-10.43 2.23c-.05.01-.11-.04-.31-.11 1.12-.52 2.12-1.04 3.15-1.46 1.72-.7 3.11-1.76 4.12-3.33.74-1.14 1.54-2.25 2.29-3.38.12-.18.39-.43.12-.65-.2-.16-.4.06-.57.18a16.43 16.43 0 0 1-4.39 2.2c-1.33.44-2.13 1.41-2.74 2.61-.55 1.08-1.23 2.08-2.15 2.89-.82.73-1.77 1.12-2.89 1.03-1.76-.13-3.52-.22-5.25-.59-.24-.05-.57-.18-.66.09-.09.26.29.34.46.48 1.15.89 2.55.8 3.89.9.71.05 1.42.01 2.13-.05.44-.03.81.03 1.08.38 2 2.53 4.75 3.57 7.84 3.91 1.32.14 2.54.48 3.63 1.26.19.14.39.29.56.06.18-.23-.06-.42-.21-.54-1.67-1.47-3.31-2.99-5.39-3.89-1.18-.52-2.47-.56-3.73-.66-.71-.05-1.39-.15-2.02-.59 1.66-.1 3.29-.4 4.93-.63.65-.09 1.23.37 1.84.57 3.41 1.1 6.86 1.85 10.47 1.53.78-.07 1.52-.31 2.19-.71.24-.14.47-.32.64-.52.15-.18.3-.44.14-.68-.12-.19-.36-.22-.59-.19-.12.02-.25.03-.37.05-1.84.26-3.62.12-5.37-.62-1.18-.5-2.45-.2-3.67-.01-1 .16-2 .33-3.02.15 2.53-.68 5-1.47 7.37-2.58.24-.11.46-.12.71-.06.72.17 1.46.3 2.17.48a9 9 0 0 0 5.04-.11c1.75-.55 3.45-1.23 5.02-2.18.18-.11.46-.18.37-.46-.1-.3-.36-.14-.56-.11-.53.08-1.06.08-1.57-.02-2.7-.53-5.29-.31-7.74 1.03-.31.17-.63.37-1.05.29.13-.26.37-.34.57-.47.94-.6 1.98-1.09 2.8-1.83 1.2-1.07 2.55-1.37 4.08-1.39 3.35-.05 6.11-1.41 8.27-3.98.58-.69 1.19-1.35 1.78-2.03.14-.16.3-.38.13-.57-.15-.17-.34 0-.49.1-.53.35-1.15.46-1.75.6-1.42.33-2.65 1.01-3.8 1.89-.86.66-1.68 1.38-2.63 1.91-.68.37-1.31.83-2.19.96.6-.74 1.37-1.24 2.03-1.84 1.94-1.75 3.69-3.67 5.36-5.67.7-.84 1.5-1.47 2.5-1.86 1.43-.56 2.41-1.57 3.1-2.92.48-.94.95-1.88 1.28-2.89.07-.26.19-.52-.08-.69zm-34.42 20.28c.28-.47.56-.96 1.1-1.22 1.56-.73 3.18-1.32 4.81-2.24-2.55 4.1-4.94 6.07-7.91 6.59.71-1.03 1.37-2.07 2-3.13zm5.94 9.61c-.81-.34-1.47-.52-2.15-.55-1.6-.07-3.08-.61-4.53-1.21-.91-.38-1.67-.99-2.18-1.73 3.36-.1 6.37.77 8.86 3.49zm-1.64-4.72c.93-.18 1.86-.38 2.8-.53 1.45-.24 2.89-.2 4.27.39 1.08.46 2.21.51 3.36.37.5-.06 1-.08 1.64-.14-.88.98-1.92 1.16-2.96 1.26-3.13.32-6.09-.67-9.11-1.16v-.19zm10.32-13.01c-.43 3.6-2.39 6.44-4.78 9.16.94-3.49 1.61-7.01 4.78-9.16zm8.3 7.85c-3.13 1.99-7.55 2.62-9.94 1.44 3.15-1.52 6.38-2.57 9.94-1.44zM184 27.61c-.01-.31-.01-.62-.04-.92-.26-2.27.39-4.27 1.79-6.06.51-.65.97-1.34 1.38-2.07.28-.51.47-1.08.83-1.55.15 4.07-1.6 7.43-3.75 10.65-.07-.02-.14-.04-.21-.05zm7.03-2.79c1.36-1.12 2.93-1.82 4.76-2.09-2.57 3.65-6.65 5.81-9.69 5.11 1.83-.78 3.44-1.8 4.93-3.02zm2.8-7.17c-2.12-2.45-1.38-5.02-.1-7.71.89 2.7.89 6.09.1 7.71zm6-5.27c-.16.61-.55 1.11-.79 1.67-.86 1.98-2.28 3.33-4.52 3.98 1.1-1.42 2-2.84 3.12-4.1.57-.65 1.18-1.27 1.88-1.78.09-.07.19-.19.32-.11.12.1.02.23-.01.34zM45.68 35.53c-1.73.36-3.49.45-5.25.59-1.11.08-2.07-.31-2.89-1.03-.92-.81-1.6-1.81-2.15-2.89-.61-1.2-1.41-2.17-2.74-2.61a16.43 16.43 0 0 1-4.39-2.2c-.17-.12-.38-.34-.57-.18-.27.22 0 .47.12.65.75 1.13 1.55 2.24 2.29 3.38 1.01 1.57 2.4 2.64 4.12 3.33 1.04.42 2.04.94 3.15 1.46-.2.08-.26.12-.31.11-3.56-.34-7.04-1.06-10.43-2.23-.39-.13-.66-.39-.82-.71-.45-.91-1.03-1.76-1.32-2.76-.38-1.34-.67-2.7-1.36-3.94-.86-1.54-2.35-2.55-3.26-4.03-.1-.16-.25-.3-.46-.19-.2.1-.2.3-.15.49.19.75.38 1.5.59 2.25.57 2.01 1.28 3.95 2.6 5.61.55.69 1.07 1.42 1.6 2.13-2.05-.8-3.89-1.88-5.66-3.08-1.14-.77-1.65-1.82-1.53-3.24.14-1.62-.02-3.22-.94-4.64-1.23-1.89-2.67-3.66-3.37-5.85-.04-.14-.09-.32-.29-.3-.18.02-.24.18-.27.33-.04.21-.07.43-.07.64-.12 2.66.5 5.16 1.73 7.51.39.74.77 1.48 1.15 2.23.07.14.26.33.05.48-.15.1-.26-.09-.38-.19-.43-.36-.86-.71-1.28-1.08-1.99-1.74-3.83-3.6-5.42-5.72-.83-1.1-.85-2.08-.1-3.19.53-.79.81-1.67.67-2.65-.2-1.42-.48-2.81-1.15-4.09-.18-.35-.21-1-.56-.98-.54.02-.35.69-.48 1.07-.51 1.5-.92 3.02-.6 4.65.16.83.26 1.67.39 2.5-.88-.92-1.62-1.9-2.37-2.87-.8-1.04-1.76-1.91-2.8-2.7-.16-.12-.36-.32-.58-.17-.26.17-.14.44-.07.67.32 1.01.79 1.95 1.28 2.89.69 1.35 1.67 2.36 3.1 2.92 1 .39 1.8 1.03 2.5 1.86 1.67 2 3.42 3.92 5.36 5.67.66.6 1.43 1.09 2.03 1.84-.88-.12-1.51-.59-2.19-.96-.96-.52-1.77-1.25-2.63-1.91-1.14-.88-2.38-1.56-3.8-1.89-.6-.14-1.22-.25-1.75-.6-.15-.1-.34-.27-.49-.1-.17.19 0 .42.13.57.59.68 1.2 1.34 1.78 2.03 2.17 2.57 4.92 3.92 8.27 3.98 1.53.02 2.88.32 4.08 1.39.82.73 1.86 1.22 2.8 1.83.2.13.44.21.57.47-.41.08-.74-.12-1.05-.29-2.45-1.35-5.04-1.57-7.74-1.03-.51.1-1.05.11-1.57.02-.2-.03-.46-.19-.56.11-.09.28.19.35.37.46 1.58.96 3.28 1.63 5.02 2.18a9 9 0 0 0 5.04.11c.72-.19 1.45-.31 2.17-.48.26-.06.47-.05.71.06 2.36 1.1 4.84 1.9 7.37 2.58-1.02.18-2.02.01-3.02-.15-1.22-.19-2.49-.49-3.67.01-1.75.74-3.53.87-5.37.62-.12-.02-.25-.03-.37-.05-.23-.03-.47 0-.59.19-.16.24-.01.5.14.68.17.21.4.38.64.52.68.4 1.41.64 2.19.71 3.61.32 7.07-.43 10.47-1.53.62-.2 1.2-.66 1.84-.57 1.64.22 3.27.53 4.93.63-.63.44-1.31.54-2.02.59-1.26.09-2.55.14-3.73.66-2.07.91-3.71 2.43-5.39 3.89-.14.13-.39.31-.21.54.17.22.37.07.56-.06 1.08-.77 2.31-1.11 3.63-1.26 3.09-.34 5.84-1.38 7.84-3.91.28-.35.64-.42 1.08-.38.71.05 1.43.1 2.13.05 1.34-.1 2.74-.01 3.89-.9.17-.14.56-.22.46-.48-.1-.25-.42-.12-.67-.07zm-17-7.28c1.63.93 3.25 1.51 4.81 2.24.54.26.82.75 1.1 1.22.63 1.06 1.29 2.09 2.01 3.12-2.98-.51-5.37-2.48-7.92-6.58zM1.32 14.05c-.25-.57-.63-1.07-.79-1.67-.03-.11-.14-.24 0-.33.12-.08.22.04.32.11.7.52 1.31 1.14 1.88 1.78 1.12 1.26 2.02 2.67 3.12 4.1-2.25-.66-3.67-2.01-4.53-3.99zm5.21 3.6c-.79-1.62-.79-5.01.1-7.71 1.28 2.69 2.01 5.26-.1 7.71zm-1.97 5.08c1.84.27 3.4.96 4.76 2.09 1.49 1.22 3.1 2.24 4.93 3.02-3.04.7-7.12-1.46-9.69-5.11zm11.83 3.96c-.04.3-.03.61-.04.92-.07.01-.14.03-.2.05-2.15-3.21-3.91-6.57-3.75-10.65.37.47.55 1.04.83 1.55.41.73.87 1.42 1.38 2.07 1.39 1.79 2.05 3.78 1.78 6.06zm-4.73 4.75c3.56-1.13 6.8-.07 9.94 1.44-2.39 1.18-6.8.55-9.94-1.44zm8.3-7.85c3.17 2.16 3.84 5.67 4.78 9.16-2.39-2.73-4.35-5.56-4.78-9.16zM30.28 36.8c-3.02.49-5.98 1.48-9.11 1.16-1.04-.11-2.08-.28-2.96-1.26.64.05 1.14.08 1.64.14 1.15.14 2.28.09 3.36-.37 1.38-.59 2.82-.63 4.27-.39.94.15 1.87.35 2.8.53v.19zm5.04 2.76c-1.45.61-2.93 1.14-4.53 1.21-.68.03-1.33.21-2.15.55 2.49-2.72 5.51-3.59 8.86-3.49-.51.74-1.26 1.35-2.18 1.73z" fill="#e9ac99"/></svg>